<mxfile host="app.diagrams.net" agent="Mozilla/5.0 (Windows NT 10.0; Win64; x64) AppleWebKit/537.36 (KHTML, like Gecko) Chrome/141.0.0.0 Safari/537.36" version="28.2.5">
  <diagram name="Trang-1" id="FinhoUhP1nFKES9kYcQB">
    <mxGraphModel dx="1489" dy="803" grid="0" gridSize="10" guides="1" tooltips="1" connect="1" arrows="1" fold="1" page="1" pageScale="1" pageWidth="827" pageHeight="1169" math="0" shadow="0">
      <root>
        <mxCell id="0" />
        <mxCell id="1" parent="0" />
        <mxCell id="9xiu-EvhAOUD5Uv4MfT2-1" value="" style="shape=partialRectangle;whiteSpace=wrap;html=1;bottom=0;right=0;fillColor=none;direction=south;" vertex="1" parent="1">
          <mxGeometry x="446" y="246" width="60" height="120" as="geometry" />
        </mxCell>
        <mxCell id="9xiu-EvhAOUD5Uv4MfT2-2" value="" style="rounded=0;whiteSpace=wrap;html=1;fillColor=#d5e8d4;strokeColor=#82b366;" vertex="1" parent="1">
          <mxGeometry x="300" y="236" width="303" height="190" as="geometry" />
        </mxCell>
        <mxCell id="9xiu-EvhAOUD5Uv4MfT2-3" value="&lt;p style=&quot;margin: 4px 0px 0px; text-align: center;&quot;&gt;&lt;b style=&quot;&quot;&gt;Product&lt;/b&gt;&lt;/p&gt;&lt;hr size=&quot;1&quot; style=&quot;border-style:solid;&quot;&gt;&lt;p style=&quot;margin:0px;margin-left:8px;&quot;&gt;&lt;br&gt;&lt;/p&gt;" style="verticalAlign=top;align=left;overflow=fill;html=1;whiteSpace=wrap;fillColor=#fff2cc;strokeColor=#d6b656;" vertex="1" parent="1">
          <mxGeometry x="482" y="276" width="94" height="60" as="geometry" />
        </mxCell>
        <mxCell id="9xiu-EvhAOUD5Uv4MfT2-10" value="" style="rounded=0;whiteSpace=wrap;html=1;fillColor=#dae8fc;strokeColor=#6c8ebf;" vertex="1" parent="1">
          <mxGeometry x="711" y="212" width="365" height="207" as="geometry" />
        </mxCell>
        <mxCell id="9xiu-EvhAOUD5Uv4MfT2-11" value="&lt;span id=&quot;docs-internal-guid-caf21a8d-7fff-bb1c-4ec3-5bf2409af63d&quot;&gt;&lt;span style=&quot;font-family: &amp;quot;Times New Roman&amp;quot;, serif; background-color: transparent; font-variant-numeric: normal; font-variant-east-asian: normal; font-variant-alternates: normal; font-variant-position: normal; font-variant-emoji: normal; vertical-align: baseline; white-space-collapse: preserve;&quot;&gt;&lt;b style=&quot;&quot;&gt;&lt;font style=&quot;font-size: 14px;&quot;&gt;Product Catalog&lt;/font&gt;&lt;/b&gt;&lt;/span&gt;&lt;/span&gt;" style="text;html=1;align=center;verticalAlign=middle;whiteSpace=wrap;rounded=0;" vertex="1" parent="1">
          <mxGeometry x="376" y="206" width="123" height="30" as="geometry" />
        </mxCell>
        <mxCell id="9xiu-EvhAOUD5Uv4MfT2-12" value="&lt;b&gt;&lt;font style=&quot;font-size: 14px;&quot;&gt;Shopping Cart&lt;/font&gt;&lt;/b&gt;" style="text;html=1;align=center;verticalAlign=middle;whiteSpace=wrap;rounded=0;" vertex="1" parent="1">
          <mxGeometry x="799" y="180" width="204" height="30" as="geometry" />
        </mxCell>
        <mxCell id="9xiu-EvhAOUD5Uv4MfT2-13" value="&lt;p style=&quot;margin: 4px 0px 0px; text-align: center;&quot;&gt;&lt;b&gt;Cart&lt;/b&gt;&lt;/p&gt;&lt;hr size=&quot;1&quot; style=&quot;border-style:solid;&quot;&gt;&lt;p style=&quot;margin:0px;margin-left:8px;&quot;&gt;&lt;br&gt;&lt;/p&gt;" style="verticalAlign=top;align=left;overflow=fill;html=1;whiteSpace=wrap;fillColor=#fff2cc;strokeColor=#d6b656;" vertex="1" parent="1">
          <mxGeometry x="940" y="336" width="94" height="60" as="geometry" />
        </mxCell>
        <mxCell id="9xiu-EvhAOUD5Uv4MfT2-14" value="" style="rounded=0;whiteSpace=wrap;html=1;fillColor=#f8cecc;strokeColor=#b85450;" vertex="1" parent="1">
          <mxGeometry x="593" y="519" width="229" height="81" as="geometry" />
        </mxCell>
        <mxCell id="9xiu-EvhAOUD5Uv4MfT2-15" value="&lt;p style=&quot;margin: 4px 0px 0px; text-align: center;&quot;&gt;&lt;b&gt;Buyer&lt;/b&gt;&lt;/p&gt;&lt;hr size=&quot;1&quot; style=&quot;border-style:solid;&quot;&gt;&lt;p style=&quot;margin:0px;margin-left:8px;&quot;&gt;&lt;br&gt;&lt;/p&gt;" style="verticalAlign=top;align=left;overflow=fill;html=1;whiteSpace=wrap;fillColor=#fff2cc;strokeColor=#d6b656;" vertex="1" parent="1">
          <mxGeometry x="724" y="290.5" width="94" height="31" as="geometry" />
        </mxCell>
        <mxCell id="9xiu-EvhAOUD5Uv4MfT2-16" value="&lt;p style=&quot;margin: 4px 0px 0px; text-align: center;&quot;&gt;&lt;b&gt;Product&lt;/b&gt;&lt;/p&gt;&lt;hr size=&quot;1&quot; style=&quot;border-style:solid;&quot;&gt;&lt;p style=&quot;margin:0px;margin-left:8px;&quot;&gt;&lt;br&gt;&lt;/p&gt;" style="verticalAlign=top;align=left;overflow=fill;html=1;whiteSpace=wrap;fillColor=#fff2cc;strokeColor=#d6b656;" vertex="1" parent="1">
          <mxGeometry x="721" y="231" width="94" height="31" as="geometry" />
        </mxCell>
        <mxCell id="9xiu-EvhAOUD5Uv4MfT2-17" value="&lt;p style=&quot;margin: 4px 0px 0px; text-align: center;&quot;&gt;&lt;b&gt;User&lt;/b&gt;&lt;/p&gt;&lt;hr size=&quot;1&quot; style=&quot;border-style:solid;&quot;&gt;&lt;p style=&quot;margin:0px;margin-left:8px;&quot;&gt;&lt;br&gt;&lt;/p&gt;" style="verticalAlign=top;align=left;overflow=fill;html=1;whiteSpace=wrap;fillColor=#fff2cc;strokeColor=#d6b656;" vertex="1" parent="1">
          <mxGeometry x="608" y="554" width="86" height="31" as="geometry" />
        </mxCell>
        <mxCell id="9xiu-EvhAOUD5Uv4MfT2-18" value="" style="endArrow=none;html=1;rounded=1;exitX=0.75;exitY=0;exitDx=0;exitDy=0;curved=0;entryX=0;entryY=0.5;entryDx=0;entryDy=0;" edge="1" parent="1" source="9xiu-EvhAOUD5Uv4MfT2-17" target="9xiu-EvhAOUD5Uv4MfT2-15">
          <mxGeometry width="50" height="50" relative="1" as="geometry">
            <mxPoint x="668" y="485" as="sourcePoint" />
            <mxPoint x="718" y="435" as="targetPoint" />
            <Array as="points">
              <mxPoint x="673" y="306" />
            </Array>
          </mxGeometry>
        </mxCell>
        <mxCell id="9xiu-EvhAOUD5Uv4MfT2-19" value="is a" style="edgeLabel;html=1;align=center;verticalAlign=middle;resizable=0;points=[];" connectable="0" vertex="1" parent="9xiu-EvhAOUD5Uv4MfT2-18">
          <mxGeometry x="-0.1414" y="-2" relative="1" as="geometry">
            <mxPoint as="offset" />
          </mxGeometry>
        </mxCell>
        <mxCell id="9xiu-EvhAOUD5Uv4MfT2-20" value="&lt;p style=&quot;margin: 4px 0px 0px; text-align: center;&quot;&gt;&lt;b&gt;Role&lt;/b&gt;&lt;/p&gt;&lt;hr size=&quot;1&quot; style=&quot;border-style:solid;&quot;&gt;&lt;p style=&quot;margin:0px;margin-left:8px;&quot;&gt;&lt;br&gt;&lt;/p&gt;" style="verticalAlign=top;align=left;overflow=fill;html=1;whiteSpace=wrap;fillColor=#fff2cc;strokeColor=#d6b656;" vertex="1" parent="1">
          <mxGeometry x="721" y="553" width="84" height="32" as="geometry" />
        </mxCell>
        <mxCell id="9xiu-EvhAOUD5Uv4MfT2-21" value="" style="endArrow=none;html=1;rounded=1;entryX=0.25;entryY=0;entryDx=0;entryDy=0;exitX=1;exitY=0.5;exitDx=0;exitDy=0;curved=0;" edge="1" parent="1" source="9xiu-EvhAOUD5Uv4MfT2-15" target="9xiu-EvhAOUD5Uv4MfT2-13">
          <mxGeometry width="50" height="50" relative="1" as="geometry">
            <mxPoint x="668" y="485" as="sourcePoint" />
            <mxPoint x="718" y="435" as="targetPoint" />
            <Array as="points">
              <mxPoint x="964" y="306" />
            </Array>
          </mxGeometry>
        </mxCell>
        <mxCell id="9xiu-EvhAOUD5Uv4MfT2-22" value="action" style="edgeLabel;html=1;align=center;verticalAlign=middle;resizable=0;points=[];" connectable="0" vertex="1" parent="9xiu-EvhAOUD5Uv4MfT2-21">
          <mxGeometry x="-0.3662" y="1" relative="1" as="geometry">
            <mxPoint as="offset" />
          </mxGeometry>
        </mxCell>
        <mxCell id="9xiu-EvhAOUD5Uv4MfT2-23" value="&lt;p style=&quot;margin: 4px 0px 0px; text-align: center;&quot;&gt;&lt;b&gt;SysAdmin&lt;/b&gt;&lt;/p&gt;&lt;hr size=&quot;1&quot; style=&quot;border-style:solid;&quot;&gt;&lt;p style=&quot;margin:0px;margin-left:8px;&quot;&gt;&lt;br&gt;&lt;/p&gt;" style="verticalAlign=top;align=left;overflow=fill;html=1;whiteSpace=wrap;fillColor=#fff2cc;strokeColor=#d6b656;" vertex="1" parent="1">
          <mxGeometry x="721" y="351" width="94" height="31" as="geometry" />
        </mxCell>
        <mxCell id="9xiu-EvhAOUD5Uv4MfT2-24" value="" style="endArrow=none;html=1;rounded=1;entryX=0;entryY=0.5;entryDx=0;entryDy=0;curved=0;" edge="1" parent="1" source="9xiu-EvhAOUD5Uv4MfT2-20" target="9xiu-EvhAOUD5Uv4MfT2-23">
          <mxGeometry width="50" height="50" relative="1" as="geometry">
            <mxPoint x="727" y="492" as="sourcePoint" />
            <mxPoint x="718" y="435" as="targetPoint" />
            <Array as="points">
              <mxPoint x="692" y="569" />
              <mxPoint x="692" y="367" />
            </Array>
          </mxGeometry>
        </mxCell>
        <mxCell id="9xiu-EvhAOUD5Uv4MfT2-25" value="is a" style="edgeLabel;html=1;align=center;verticalAlign=middle;resizable=0;points=[];" connectable="0" vertex="1" parent="9xiu-EvhAOUD5Uv4MfT2-24">
          <mxGeometry x="-0.0292" y="1" relative="1" as="geometry">
            <mxPoint as="offset" />
          </mxGeometry>
        </mxCell>
        <mxCell id="9xiu-EvhAOUD5Uv4MfT2-26" value="" style="endArrow=none;html=1;rounded=1;exitX=0.75;exitY=0;exitDx=0;exitDy=0;entryX=0;entryY=0.5;entryDx=0;entryDy=0;curved=0;" edge="1" parent="1" source="9xiu-EvhAOUD5Uv4MfT2-3" target="9xiu-EvhAOUD5Uv4MfT2-16">
          <mxGeometry width="50" height="50" relative="1" as="geometry">
            <mxPoint x="602" y="264.5" as="sourcePoint" />
            <mxPoint x="652" y="214.5" as="targetPoint" />
            <Array as="points">
              <mxPoint x="553" y="249" />
            </Array>
          </mxGeometry>
        </mxCell>
        <mxCell id="9xiu-EvhAOUD5Uv4MfT2-27" value="is a" style="edgeLabel;html=1;align=center;verticalAlign=middle;resizable=0;points=[];" connectable="0" vertex="1" parent="9xiu-EvhAOUD5Uv4MfT2-26">
          <mxGeometry x="0.102" y="3" relative="1" as="geometry">
            <mxPoint as="offset" />
          </mxGeometry>
        </mxCell>
        <mxCell id="9xiu-EvhAOUD5Uv4MfT2-29" value="" style="rounded=0;whiteSpace=wrap;html=1;fillColor=#e1d5e7;strokeColor=#9673a6;" vertex="1" parent="1">
          <mxGeometry x="300" y="462" width="199" height="135" as="geometry" />
        </mxCell>
        <mxCell id="9xiu-EvhAOUD5Uv4MfT2-30" value="&lt;font style=&quot;font-size: 14px;&quot;&gt;&lt;b&gt;Inventory&lt;/b&gt;&lt;/font&gt;" style="text;html=1;align=center;verticalAlign=middle;whiteSpace=wrap;rounded=0;" vertex="1" parent="1">
          <mxGeometry x="369.5" y="432" width="60" height="30" as="geometry" />
        </mxCell>
        <mxCell id="9xiu-EvhAOUD5Uv4MfT2-31" value="&lt;p style=&quot;margin: 4px 0px 0px; text-align: center;&quot;&gt;&lt;b&gt;SysAdmin&lt;/b&gt;&lt;/p&gt;&lt;hr size=&quot;1&quot; style=&quot;border-style:solid;&quot;&gt;&lt;p style=&quot;margin:0px;margin-left:8px;&quot;&gt;&lt;br&gt;&lt;/p&gt;" style="verticalAlign=top;align=left;overflow=fill;html=1;whiteSpace=wrap;fillColor=#fff2cc;strokeColor=#d6b656;" vertex="1" parent="1">
          <mxGeometry x="352.5" y="554" width="94" height="31" as="geometry" />
        </mxCell>
        <mxCell id="9xiu-EvhAOUD5Uv4MfT2-32" value="&lt;p style=&quot;margin: 4px 0px 0px; text-align: center;&quot;&gt;&lt;b&gt;Inventory&lt;/b&gt;&lt;/p&gt;&lt;hr size=&quot;1&quot; style=&quot;border-style:solid;&quot;&gt;&lt;p style=&quot;margin:0px;margin-left:8px;&quot;&gt;&lt;br&gt;&lt;/p&gt;" style="verticalAlign=top;align=left;overflow=fill;html=1;whiteSpace=wrap;fillColor=#fff2cc;strokeColor=#d6b656;" vertex="1" parent="1">
          <mxGeometry x="341" y="478" width="115" height="31" as="geometry" />
        </mxCell>
        <mxCell id="9xiu-EvhAOUD5Uv4MfT2-39" value="" style="endArrow=none;html=1;rounded=0;entryX=0;entryY=0.5;entryDx=0;entryDy=0;exitX=1;exitY=0.5;exitDx=0;exitDy=0;" edge="1" parent="1" source="9xiu-EvhAOUD5Uv4MfT2-23" target="9xiu-EvhAOUD5Uv4MfT2-13">
          <mxGeometry width="50" height="50" relative="1" as="geometry">
            <mxPoint x="668" y="496" as="sourcePoint" />
            <mxPoint x="718" y="446" as="targetPoint" />
          </mxGeometry>
        </mxCell>
        <mxCell id="9xiu-EvhAOUD5Uv4MfT2-40" value="&lt;span style=&quot;font-size: 10px;&quot;&gt;view ,manage,monitor&lt;/span&gt;" style="edgeLabel;html=1;align=center;verticalAlign=middle;resizable=0;points=[];" connectable="0" vertex="1" parent="9xiu-EvhAOUD5Uv4MfT2-39">
          <mxGeometry x="0.0144" relative="1" as="geometry">
            <mxPoint as="offset" />
          </mxGeometry>
        </mxCell>
        <mxCell id="9xiu-EvhAOUD5Uv4MfT2-41" value="" style="endArrow=none;html=1;rounded=0;entryX=0.5;entryY=1;entryDx=0;entryDy=0;exitX=0.5;exitY=0;exitDx=0;exitDy=0;" edge="1" parent="1" source="9xiu-EvhAOUD5Uv4MfT2-31" target="9xiu-EvhAOUD5Uv4MfT2-32">
          <mxGeometry width="50" height="50" relative="1" as="geometry">
            <mxPoint x="668" y="496" as="sourcePoint" />
            <mxPoint x="718" y="446" as="targetPoint" />
          </mxGeometry>
        </mxCell>
        <mxCell id="9xiu-EvhAOUD5Uv4MfT2-42" value="CRUD" style="edgeLabel;html=1;align=center;verticalAlign=middle;resizable=0;points=[];" connectable="0" vertex="1" parent="9xiu-EvhAOUD5Uv4MfT2-41">
          <mxGeometry x="0.0208" y="-1" relative="1" as="geometry">
            <mxPoint as="offset" />
          </mxGeometry>
        </mxCell>
        <mxCell id="9xiu-EvhAOUD5Uv4MfT2-43" value="&lt;p style=&quot;margin: 4px 0px 0px; text-align: center;&quot;&gt;&lt;b&gt;Inventory info&lt;/b&gt;&lt;/p&gt;&lt;hr size=&quot;1&quot; style=&quot;border-style:solid;&quot;&gt;&lt;p style=&quot;margin:0px;margin-left:8px;&quot;&gt;&lt;br&gt;&lt;/p&gt;" style="verticalAlign=top;align=left;overflow=fill;html=1;whiteSpace=wrap;fillColor=#fff2cc;strokeColor=#d6b656;" vertex="1" parent="1">
          <mxGeometry x="310" y="290.5" width="115" height="31" as="geometry" />
        </mxCell>
        <mxCell id="9xiu-EvhAOUD5Uv4MfT2-44" value="" style="endArrow=none;html=1;rounded=1;entryX=0.104;entryY=0.994;entryDx=0;entryDy=0;entryPerimeter=0;exitX=0;exitY=0.5;exitDx=0;exitDy=0;curved=0;" edge="1" parent="1" source="9xiu-EvhAOUD5Uv4MfT2-32" target="9xiu-EvhAOUD5Uv4MfT2-43">
          <mxGeometry width="50" height="50" relative="1" as="geometry">
            <mxPoint x="668" y="496" as="sourcePoint" />
            <mxPoint x="718" y="446" as="targetPoint" />
            <Array as="points">
              <mxPoint x="322" y="494" />
            </Array>
          </mxGeometry>
        </mxCell>
        <mxCell id="9xiu-EvhAOUD5Uv4MfT2-45" value="is a" style="edgeLabel;html=1;align=center;verticalAlign=middle;resizable=0;points=[];" connectable="0" vertex="1" parent="9xiu-EvhAOUD5Uv4MfT2-44">
          <mxGeometry x="0.1903" y="1" relative="1" as="geometry">
            <mxPoint as="offset" />
          </mxGeometry>
        </mxCell>
        <mxCell id="9xiu-EvhAOUD5Uv4MfT2-49" value="" style="endArrow=none;html=1;rounded=0;entryX=1;entryY=0.5;entryDx=0;entryDy=0;" edge="1" parent="1" source="9xiu-EvhAOUD5Uv4MfT2-17" target="9xiu-EvhAOUD5Uv4MfT2-31">
          <mxGeometry width="50" height="50" relative="1" as="geometry">
            <mxPoint x="668" y="496" as="sourcePoint" />
            <mxPoint x="718" y="446" as="targetPoint" />
          </mxGeometry>
        </mxCell>
        <mxCell id="9xiu-EvhAOUD5Uv4MfT2-50" value="is a" style="edgeLabel;html=1;align=center;verticalAlign=middle;resizable=0;points=[];" connectable="0" vertex="1" parent="9xiu-EvhAOUD5Uv4MfT2-49">
          <mxGeometry x="0.0353" y="1" relative="1" as="geometry">
            <mxPoint as="offset" />
          </mxGeometry>
        </mxCell>
        <mxCell id="9xiu-EvhAOUD5Uv4MfT2-51" value="" style="rounded=0;whiteSpace=wrap;html=1;fillColor=#eeeeee;strokeColor=#36393d;" vertex="1" parent="1">
          <mxGeometry x="300" y="685" width="245" height="193" as="geometry" />
        </mxCell>
        <mxCell id="9xiu-EvhAOUD5Uv4MfT2-52" value="&lt;font style=&quot;font-size: 14px;&quot;&gt;&lt;b&gt;Payment Process&lt;/b&gt;&lt;/font&gt;" style="text;html=1;align=center;verticalAlign=middle;whiteSpace=wrap;rounded=0;" vertex="1" parent="1">
          <mxGeometry x="352.5" y="655" width="140" height="30" as="geometry" />
        </mxCell>
        <mxCell id="9xiu-EvhAOUD5Uv4MfT2-53" value="&lt;p style=&quot;margin: 4px 0px 0px; text-align: center;&quot;&gt;&lt;b&gt;PaymentStatus&lt;/b&gt;&lt;/p&gt;&lt;hr size=&quot;1&quot; style=&quot;border-style:solid;&quot;&gt;&lt;p style=&quot;margin:0px;margin-left:8px;&quot;&gt;&lt;br&gt;&lt;/p&gt;" style="verticalAlign=top;align=left;overflow=fill;html=1;whiteSpace=wrap;fillColor=#fff2cc;strokeColor=#d6b656;" vertex="1" parent="1">
          <mxGeometry x="307" y="838" width="94" height="31" as="geometry" />
        </mxCell>
        <mxCell id="9xiu-EvhAOUD5Uv4MfT2-54" value="&lt;p style=&quot;margin: 4px 0px 0px; text-align: center;&quot;&gt;&lt;b&gt;Order infor&lt;/b&gt;&lt;/p&gt;&lt;hr size=&quot;1&quot; style=&quot;border-style:solid;&quot;&gt;&lt;p style=&quot;margin:0px;margin-left:8px;&quot;&gt;&lt;br&gt;&lt;/p&gt;" style="verticalAlign=top;align=left;overflow=fill;html=1;whiteSpace=wrap;fillColor=#fff2cc;strokeColor=#d6b656;" vertex="1" parent="1">
          <mxGeometry x="436.75" y="840" width="70.5" height="31" as="geometry" />
        </mxCell>
        <mxCell id="9xiu-EvhAOUD5Uv4MfT2-55" value="" style="rounded=0;whiteSpace=wrap;html=1;fillColor=#cdeb8b;strokeColor=#36393d;" vertex="1" parent="1">
          <mxGeometry x="697" y="741" width="268" height="137" as="geometry" />
        </mxCell>
        <mxCell id="9xiu-EvhAOUD5Uv4MfT2-56" value="&lt;font style=&quot;font-size: 14px;&quot;&gt;&lt;b&gt;Accsess Control&lt;/b&gt;&lt;/font&gt;" style="text;html=1;align=center;verticalAlign=middle;whiteSpace=wrap;rounded=0;" vertex="1" parent="1">
          <mxGeometry x="681" y="597" width="118" height="30" as="geometry" />
        </mxCell>
        <mxCell id="9xiu-EvhAOUD5Uv4MfT2-57" value="&lt;p style=&quot;margin: 4px 0px 0px; text-align: center;&quot;&gt;&lt;b&gt;Customer&lt;/b&gt;&lt;/p&gt;&lt;hr size=&quot;1&quot; style=&quot;border-style:solid;&quot;&gt;&lt;p style=&quot;margin:0px;margin-left:8px;&quot;&gt;&lt;br&gt;&lt;/p&gt;" style="verticalAlign=top;align=left;overflow=fill;html=1;whiteSpace=wrap;fillColor=#fff2cc;strokeColor=#d6b656;" vertex="1" parent="1">
          <mxGeometry x="425" y="697" width="94" height="31" as="geometry" />
        </mxCell>
        <mxCell id="9xiu-EvhAOUD5Uv4MfT2-58" value="&lt;p style=&quot;margin: 4px 0px 0px; text-align: center;&quot;&gt;&lt;b&gt;PaymentMethod&lt;/b&gt;&lt;/p&gt;&lt;hr size=&quot;1&quot; style=&quot;border-style:solid;&quot;&gt;&lt;p style=&quot;margin:0px;margin-left:8px;&quot;&gt;&lt;br&gt;&lt;/p&gt;" style="verticalAlign=top;align=left;overflow=fill;html=1;whiteSpace=wrap;fillColor=#fff2cc;strokeColor=#d6b656;" vertex="1" parent="1">
          <mxGeometry x="307" y="707" width="94" height="31" as="geometry" />
        </mxCell>
        <mxCell id="9xiu-EvhAOUD5Uv4MfT2-59" value="&lt;p style=&quot;margin: 4px 0px 0px; text-align: center;&quot;&gt;&lt;b&gt;Payment&lt;/b&gt;&lt;/p&gt;&lt;hr size=&quot;1&quot; style=&quot;border-style:solid;&quot;&gt;&lt;p style=&quot;margin:0px;margin-left:8px;&quot;&gt;&lt;br&gt;&lt;/p&gt;" style="verticalAlign=top;align=left;overflow=fill;html=1;whiteSpace=wrap;fillColor=#fff2cc;strokeColor=#d6b656;" vertex="1" parent="1">
          <mxGeometry x="425" y="776" width="94" height="31" as="geometry" />
        </mxCell>
        <mxCell id="9xiu-EvhAOUD5Uv4MfT2-60" value="" style="endArrow=none;html=1;rounded=0;entryX=0.5;entryY=1;entryDx=0;entryDy=0;exitX=0.5;exitY=0;exitDx=0;exitDy=0;" edge="1" parent="1" source="9xiu-EvhAOUD5Uv4MfT2-59" target="9xiu-EvhAOUD5Uv4MfT2-57">
          <mxGeometry width="50" height="50" relative="1" as="geometry">
            <mxPoint x="629" y="723" as="sourcePoint" />
            <mxPoint x="679" y="673" as="targetPoint" />
          </mxGeometry>
        </mxCell>
        <mxCell id="9xiu-EvhAOUD5Uv4MfT2-61" value="" style="endArrow=none;html=1;rounded=1;entryX=0;entryY=0.75;entryDx=0;entryDy=0;exitX=0.25;exitY=0;exitDx=0;exitDy=0;curved=0;" edge="1" parent="1" source="9xiu-EvhAOUD5Uv4MfT2-53" target="9xiu-EvhAOUD5Uv4MfT2-59">
          <mxGeometry width="50" height="50" relative="1" as="geometry">
            <mxPoint x="313" y="851" as="sourcePoint" />
            <mxPoint x="380" y="776" as="targetPoint" />
            <Array as="points">
              <mxPoint x="331" y="799" />
            </Array>
          </mxGeometry>
        </mxCell>
        <mxCell id="9xiu-EvhAOUD5Uv4MfT2-62" value="1" style="edgeLabel;html=1;align=center;verticalAlign=middle;resizable=0;points=[];" connectable="0" vertex="1" parent="9xiu-EvhAOUD5Uv4MfT2-61">
          <mxGeometry x="0.4045" relative="1" as="geometry">
            <mxPoint as="offset" />
          </mxGeometry>
        </mxCell>
        <mxCell id="9xiu-EvhAOUD5Uv4MfT2-63" value="1" style="edgeLabel;html=1;align=center;verticalAlign=middle;resizable=0;points=[];" connectable="0" vertex="1" parent="9xiu-EvhAOUD5Uv4MfT2-61">
          <mxGeometry x="-0.6694" y="1" relative="1" as="geometry">
            <mxPoint as="offset" />
          </mxGeometry>
        </mxCell>
        <mxCell id="9xiu-EvhAOUD5Uv4MfT2-64" value="" style="endArrow=none;html=1;rounded=1;entryX=0;entryY=0;entryDx=0;entryDy=0;exitX=0.75;exitY=1;exitDx=0;exitDy=0;curved=0;" edge="1" parent="1" source="9xiu-EvhAOUD5Uv4MfT2-58" target="9xiu-EvhAOUD5Uv4MfT2-59">
          <mxGeometry width="50" height="50" relative="1" as="geometry">
            <mxPoint x="668" y="637" as="sourcePoint" />
            <mxPoint x="718" y="587" as="targetPoint" />
            <Array as="points">
              <mxPoint x="378" y="755" />
              <mxPoint x="425" y="755" />
            </Array>
          </mxGeometry>
        </mxCell>
        <mxCell id="9xiu-EvhAOUD5Uv4MfT2-65" value="1" style="edgeLabel;html=1;align=center;verticalAlign=middle;resizable=0;points=[];" connectable="0" vertex="1" parent="9xiu-EvhAOUD5Uv4MfT2-64">
          <mxGeometry x="-0.4728" y="1" relative="1" as="geometry">
            <mxPoint as="offset" />
          </mxGeometry>
        </mxCell>
        <mxCell id="9xiu-EvhAOUD5Uv4MfT2-66" value="1" style="edgeLabel;html=1;align=center;verticalAlign=middle;resizable=0;points=[];" connectable="0" vertex="1" parent="9xiu-EvhAOUD5Uv4MfT2-64">
          <mxGeometry x="0.6941" relative="1" as="geometry">
            <mxPoint as="offset" />
          </mxGeometry>
        </mxCell>
        <mxCell id="9xiu-EvhAOUD5Uv4MfT2-67" value="" style="endArrow=none;html=1;rounded=0;entryX=0.5;entryY=0;entryDx=0;entryDy=0;exitX=0.5;exitY=1;exitDx=0;exitDy=0;" edge="1" parent="1" source="9xiu-EvhAOUD5Uv4MfT2-59" target="9xiu-EvhAOUD5Uv4MfT2-54">
          <mxGeometry width="50" height="50" relative="1" as="geometry">
            <mxPoint x="668" y="637" as="sourcePoint" />
            <mxPoint x="718" y="587" as="targetPoint" />
          </mxGeometry>
        </mxCell>
        <mxCell id="9xiu-EvhAOUD5Uv4MfT2-68" value="1...1" style="edgeLabel;html=1;align=center;verticalAlign=middle;resizable=0;points=[];" connectable="0" vertex="1" parent="9xiu-EvhAOUD5Uv4MfT2-67">
          <mxGeometry x="-0.2121" relative="1" as="geometry">
            <mxPoint as="offset" />
          </mxGeometry>
        </mxCell>
        <mxCell id="9xiu-EvhAOUD5Uv4MfT2-69" value="" style="endArrow=none;html=1;rounded=1;entryX=0.5;entryY=1;entryDx=0;entryDy=0;exitX=1;exitY=0.5;exitDx=0;exitDy=0;curved=0;" edge="1" parent="1" source="9xiu-EvhAOUD5Uv4MfT2-57" target="9xiu-EvhAOUD5Uv4MfT2-17">
          <mxGeometry width="50" height="50" relative="1" as="geometry">
            <mxPoint x="668" y="637" as="sourcePoint" />
            <mxPoint x="718" y="587" as="targetPoint" />
            <Array as="points">
              <mxPoint x="651" y="713" />
            </Array>
          </mxGeometry>
        </mxCell>
        <mxCell id="9xiu-EvhAOUD5Uv4MfT2-70" value="is a" style="edgeLabel;html=1;align=center;verticalAlign=middle;resizable=0;points=[];" connectable="0" vertex="1" parent="9xiu-EvhAOUD5Uv4MfT2-69">
          <mxGeometry x="-0.4123" y="1" relative="1" as="geometry">
            <mxPoint as="offset" />
          </mxGeometry>
        </mxCell>
        <mxCell id="9xiu-EvhAOUD5Uv4MfT2-71" value="&lt;span style=&quot;font-size: 14px;&quot;&gt;&lt;b&gt;Rating&lt;/b&gt;&lt;/span&gt;" style="text;html=1;align=center;verticalAlign=middle;whiteSpace=wrap;rounded=0;" vertex="1" parent="1">
          <mxGeometry x="727" y="716" width="215" height="30" as="geometry" />
        </mxCell>
        <mxCell id="9xiu-EvhAOUD5Uv4MfT2-72" value="" style="endArrow=none;html=1;rounded=1;entryX=0.5;entryY=1;entryDx=0;entryDy=0;exitX=0.75;exitY=1;exitDx=0;exitDy=0;curved=0;" edge="1" parent="1" source="9xiu-EvhAOUD5Uv4MfT2-13" target="9xiu-EvhAOUD5Uv4MfT2-54">
          <mxGeometry width="50" height="50" relative="1" as="geometry">
            <mxPoint x="562" y="932" as="sourcePoint" />
            <mxPoint x="612" y="882" as="targetPoint" />
            <Array as="points">
              <mxPoint x="1011" y="901" />
              <mxPoint x="472" y="899" />
            </Array>
          </mxGeometry>
        </mxCell>
        <mxCell id="9xiu-EvhAOUD5Uv4MfT2-73" value="is a" style="edgeLabel;html=1;align=center;verticalAlign=middle;resizable=0;points=[];" connectable="0" vertex="1" parent="9xiu-EvhAOUD5Uv4MfT2-72">
          <mxGeometry x="-0.6045" y="1" relative="1" as="geometry">
            <mxPoint as="offset" />
          </mxGeometry>
        </mxCell>
        <mxCell id="9xiu-EvhAOUD5Uv4MfT2-74" value="is a" style="edgeLabel;html=1;align=center;verticalAlign=middle;resizable=0;points=[];" connectable="0" vertex="1" parent="9xiu-EvhAOUD5Uv4MfT2-72">
          <mxGeometry x="0.5851" relative="1" as="geometry">
            <mxPoint as="offset" />
          </mxGeometry>
        </mxCell>
        <mxCell id="9xiu-EvhAOUD5Uv4MfT2-75" value="&lt;p style=&quot;margin: 4px 0px 0px; text-align: center;&quot;&gt;&lt;b&gt;Rating&lt;/b&gt;&lt;/p&gt;&lt;hr size=&quot;1&quot; style=&quot;border-style:solid;&quot;&gt;&lt;p style=&quot;margin:0px;margin-left:8px;&quot;&gt;&lt;br&gt;&lt;/p&gt;" style="verticalAlign=top;align=left;overflow=fill;html=1;whiteSpace=wrap;fillColor=#fff2cc;strokeColor=#d6b656;" vertex="1" parent="1">
          <mxGeometry x="799" y="756" width="84" height="32" as="geometry" />
        </mxCell>
        <mxCell id="9xiu-EvhAOUD5Uv4MfT2-76" value="&lt;p style=&quot;margin: 4px 0px 0px; text-align: center;&quot;&gt;&lt;b&gt;Customer&lt;/b&gt;&lt;/p&gt;&lt;hr size=&quot;1&quot; style=&quot;border-style:solid;&quot;&gt;&lt;p style=&quot;margin:0px;margin-left:8px;&quot;&gt;&lt;br&gt;&lt;/p&gt;" style="verticalAlign=top;align=left;overflow=fill;html=1;whiteSpace=wrap;fillColor=#fff2cc;strokeColor=#d6b656;" vertex="1" parent="1">
          <mxGeometry x="709" y="840" width="94" height="31" as="geometry" />
        </mxCell>
        <mxCell id="9xiu-EvhAOUD5Uv4MfT2-77" value="&lt;p style=&quot;margin: 4px 0px 0px; text-align: center;&quot;&gt;&lt;b&gt;Product&lt;/b&gt;&lt;/p&gt;&lt;hr size=&quot;1&quot; style=&quot;border-style:solid;&quot;&gt;&lt;p style=&quot;margin:0px;margin-left:8px;&quot;&gt;&lt;br&gt;&lt;/p&gt;" style="verticalAlign=top;align=left;overflow=fill;html=1;whiteSpace=wrap;fillColor=#fff2cc;strokeColor=#d6b656;" vertex="1" parent="1">
          <mxGeometry x="857" y="836" width="94" height="31" as="geometry" />
        </mxCell>
        <mxCell id="9xiu-EvhAOUD5Uv4MfT2-78" value="" style="endArrow=none;html=1;rounded=1;entryX=0.25;entryY=1;entryDx=0;entryDy=0;exitX=1;exitY=0.5;exitDx=0;exitDy=0;curved=0;" edge="1" parent="1" source="9xiu-EvhAOUD5Uv4MfT2-76" target="9xiu-EvhAOUD5Uv4MfT2-75">
          <mxGeometry width="50" height="50" relative="1" as="geometry">
            <mxPoint x="668" y="836" as="sourcePoint" />
            <mxPoint x="718" y="786" as="targetPoint" />
            <Array as="points">
              <mxPoint x="820" y="856" />
            </Array>
          </mxGeometry>
        </mxCell>
        <mxCell id="9xiu-EvhAOUD5Uv4MfT2-79" value="rate" style="edgeLabel;html=1;align=center;verticalAlign=middle;resizable=0;points=[];" connectable="0" vertex="1" parent="9xiu-EvhAOUD5Uv4MfT2-78">
          <mxGeometry x="0.106" y="1" relative="1" as="geometry">
            <mxPoint as="offset" />
          </mxGeometry>
        </mxCell>
        <mxCell id="9xiu-EvhAOUD5Uv4MfT2-80" value="" style="endArrow=none;html=1;rounded=1;entryX=0.5;entryY=0;entryDx=0;entryDy=0;exitX=0.75;exitY=1;exitDx=0;exitDy=0;curved=0;" edge="1" parent="1" source="9xiu-EvhAOUD5Uv4MfT2-75" target="9xiu-EvhAOUD5Uv4MfT2-77">
          <mxGeometry width="50" height="50" relative="1" as="geometry">
            <mxPoint x="668" y="836" as="sourcePoint" />
            <mxPoint x="718" y="786" as="targetPoint" />
            <Array as="points">
              <mxPoint x="862" y="812" />
              <mxPoint x="904" y="812" />
            </Array>
          </mxGeometry>
        </mxCell>
        <mxCell id="9xiu-EvhAOUD5Uv4MfT2-81" value="1*" style="edgeLabel;html=1;align=center;verticalAlign=middle;resizable=0;points=[];" connectable="0" vertex="1" parent="9xiu-EvhAOUD5Uv4MfT2-80">
          <mxGeometry x="-0.6" y="1" relative="1" as="geometry">
            <mxPoint as="offset" />
          </mxGeometry>
        </mxCell>
        <mxCell id="9xiu-EvhAOUD5Uv4MfT2-82" value="0" style="edgeLabel;html=1;align=center;verticalAlign=middle;resizable=0;points=[];" connectable="0" vertex="1" parent="9xiu-EvhAOUD5Uv4MfT2-80">
          <mxGeometry x="0.6889" relative="1" as="geometry">
            <mxPoint as="offset" />
          </mxGeometry>
        </mxCell>
        <mxCell id="9xiu-EvhAOUD5Uv4MfT2-83" value="" style="endArrow=none;html=1;rounded=1;entryX=0.684;entryY=0.955;entryDx=0;entryDy=0;entryPerimeter=0;exitX=0;exitY=0.5;exitDx=0;exitDy=0;curved=0;" edge="1" parent="1" source="9xiu-EvhAOUD5Uv4MfT2-76" target="9xiu-EvhAOUD5Uv4MfT2-17">
          <mxGeometry width="50" height="50" relative="1" as="geometry">
            <mxPoint x="668" y="836" as="sourcePoint" />
            <mxPoint x="718" y="786" as="targetPoint" />
            <Array as="points">
              <mxPoint x="669" y="856" />
            </Array>
          </mxGeometry>
        </mxCell>
        <mxCell id="9xiu-EvhAOUD5Uv4MfT2-84" value="is a" style="edgeLabel;html=1;align=center;verticalAlign=middle;resizable=0;points=[];" connectable="0" vertex="1" parent="9xiu-EvhAOUD5Uv4MfT2-83">
          <mxGeometry x="-0.1933" y="1" relative="1" as="geometry">
            <mxPoint as="offset" />
          </mxGeometry>
        </mxCell>
        <mxCell id="9xiu-EvhAOUD5Uv4MfT2-85" value="" style="endArrow=none;html=1;rounded=1;exitX=1;exitY=0.5;exitDx=0;exitDy=0;entryX=0.75;entryY=0;entryDx=0;entryDy=0;curved=0;" edge="1" parent="1" source="9xiu-EvhAOUD5Uv4MfT2-3" target="9xiu-EvhAOUD5Uv4MfT2-77">
          <mxGeometry width="50" height="50" relative="1" as="geometry">
            <mxPoint x="610" y="458" as="sourcePoint" />
            <mxPoint x="994" y="438" as="targetPoint" />
            <Array as="points">
              <mxPoint x="630" y="306" />
              <mxPoint x="632" y="443" />
              <mxPoint x="930" y="443" />
            </Array>
          </mxGeometry>
        </mxCell>
        <mxCell id="9xiu-EvhAOUD5Uv4MfT2-86" value="is a" style="edgeLabel;html=1;align=center;verticalAlign=middle;resizable=0;points=[];" connectable="0" vertex="1" parent="9xiu-EvhAOUD5Uv4MfT2-85">
          <mxGeometry x="0.4118" y="-1" relative="1" as="geometry">
            <mxPoint as="offset" />
          </mxGeometry>
        </mxCell>
        <mxCell id="9xiu-EvhAOUD5Uv4MfT2-87" value="&lt;p style=&quot;margin: 4px 0px 0px; text-align: center;&quot;&gt;&lt;b&gt;Product Category&lt;/b&gt;&lt;/p&gt;&lt;hr size=&quot;1&quot; style=&quot;border-style:solid;&quot;&gt;&lt;p style=&quot;margin:0px;margin-left:8px;&quot;&gt;&lt;br&gt;&lt;/p&gt;" style="verticalAlign=top;align=left;overflow=fill;html=1;whiteSpace=wrap;fillColor=#fff2cc;strokeColor=#d6b656;" vertex="1" parent="1">
          <mxGeometry x="338" y="335" width="108" height="31" as="geometry" />
        </mxCell>
        <mxCell id="9xiu-EvhAOUD5Uv4MfT2-88" value="" style="endArrow=none;html=1;rounded=1;entryX=0.25;entryY=1;entryDx=0;entryDy=0;exitX=1;exitY=0.75;exitDx=0;exitDy=0;curved=0;" edge="1" parent="1" source="9xiu-EvhAOUD5Uv4MfT2-87" target="9xiu-EvhAOUD5Uv4MfT2-3">
          <mxGeometry width="50" height="50" relative="1" as="geometry">
            <mxPoint x="668" y="236" as="sourcePoint" />
            <mxPoint x="718" y="186" as="targetPoint" />
            <Array as="points">
              <mxPoint x="506" y="358" />
            </Array>
          </mxGeometry>
        </mxCell>
        <mxCell id="9xiu-EvhAOUD5Uv4MfT2-89" value="1*" style="edgeLabel;html=1;align=center;verticalAlign=middle;resizable=0;points=[];" connectable="0" vertex="1" parent="9xiu-EvhAOUD5Uv4MfT2-88">
          <mxGeometry x="0.7605" relative="1" as="geometry">
            <mxPoint as="offset" />
          </mxGeometry>
        </mxCell>
        <mxCell id="9xiu-EvhAOUD5Uv4MfT2-90" value="1" style="edgeLabel;html=1;align=center;verticalAlign=middle;resizable=0;points=[];" connectable="0" vertex="1" parent="9xiu-EvhAOUD5Uv4MfT2-88">
          <mxGeometry x="-0.7557" y="-2" relative="1" as="geometry">
            <mxPoint as="offset" />
          </mxGeometry>
        </mxCell>
        <mxCell id="9xiu-EvhAOUD5Uv4MfT2-95" value="" style="endArrow=none;html=1;rounded=0;entryX=0;entryY=0.5;entryDx=0;entryDy=0;" edge="1" parent="1" source="9xiu-EvhAOUD5Uv4MfT2-43" target="9xiu-EvhAOUD5Uv4MfT2-3">
          <mxGeometry width="50" height="50" relative="1" as="geometry">
            <mxPoint x="632" y="418" as="sourcePoint" />
            <mxPoint x="682" y="368" as="targetPoint" />
          </mxGeometry>
        </mxCell>
        <mxCell id="9xiu-EvhAOUD5Uv4MfT2-100" value="0*" style="edgeLabel;html=1;align=center;verticalAlign=middle;resizable=0;points=[];" vertex="1" connectable="0" parent="9xiu-EvhAOUD5Uv4MfT2-95">
          <mxGeometry x="-0.6" relative="1" as="geometry">
            <mxPoint as="offset" />
          </mxGeometry>
        </mxCell>
        <mxCell id="9xiu-EvhAOUD5Uv4MfT2-101" value="0*" style="edgeLabel;html=1;align=center;verticalAlign=middle;resizable=0;points=[];" vertex="1" connectable="0" parent="9xiu-EvhAOUD5Uv4MfT2-95">
          <mxGeometry x="0.5228" y="-1" relative="1" as="geometry">
            <mxPoint as="offset" />
          </mxGeometry>
        </mxCell>
        <mxCell id="9xiu-EvhAOUD5Uv4MfT2-96" value="" style="endArrow=none;html=1;rounded=1;entryX=0.5;entryY=0;entryDx=0;entryDy=0;exitX=1;exitY=0.5;exitDx=0;exitDy=0;curved=0;" edge="1" parent="1" source="9xiu-EvhAOUD5Uv4MfT2-16" target="9xiu-EvhAOUD5Uv4MfT2-13">
          <mxGeometry width="50" height="50" relative="1" as="geometry">
            <mxPoint x="632" y="418" as="sourcePoint" />
            <mxPoint x="682" y="368" as="targetPoint" />
            <Array as="points">
              <mxPoint x="987" y="247" />
            </Array>
          </mxGeometry>
        </mxCell>
        <mxCell id="9xiu-EvhAOUD5Uv4MfT2-97" value="1*" style="edgeLabel;html=1;align=center;verticalAlign=middle;resizable=0;points=[];" vertex="1" connectable="0" parent="9xiu-EvhAOUD5Uv4MfT2-96">
          <mxGeometry x="-0.744" y="-2" relative="1" as="geometry">
            <mxPoint as="offset" />
          </mxGeometry>
        </mxCell>
        <mxCell id="9xiu-EvhAOUD5Uv4MfT2-99" value="0*" style="edgeLabel;html=1;align=center;verticalAlign=middle;resizable=0;points=[];" vertex="1" connectable="0" parent="9xiu-EvhAOUD5Uv4MfT2-96">
          <mxGeometry x="0.9034" relative="1" as="geometry">
            <mxPoint as="offset" />
          </mxGeometry>
        </mxCell>
        <mxCell id="9xiu-EvhAOUD5Uv4MfT2-103" value="&lt;p style=&quot;margin: 4px 0px 0px; text-align: center;&quot;&gt;&lt;b&gt;Buyer&lt;/b&gt;&lt;/p&gt;&lt;hr size=&quot;1&quot; style=&quot;border-style:solid;&quot;&gt;&lt;p style=&quot;margin:0px;margin-left:8px;&quot;&gt;&lt;br&gt;&lt;/p&gt;" style="verticalAlign=top;align=left;overflow=fill;html=1;whiteSpace=wrap;fillColor=#fff2cc;strokeColor=#d6b656;" vertex="1" parent="1">
          <mxGeometry x="348" y="378" width="94" height="31" as="geometry" />
        </mxCell>
        <mxCell id="9xiu-EvhAOUD5Uv4MfT2-105" value="" style="endArrow=none;html=1;rounded=1;entryX=0.391;entryY=0.95;entryDx=0;entryDy=0;exitX=0.5;exitY=0;exitDx=0;exitDy=0;curved=0;entryPerimeter=0;" edge="1" parent="1" source="9xiu-EvhAOUD5Uv4MfT2-103" target="9xiu-EvhAOUD5Uv4MfT2-3">
          <mxGeometry width="50" height="50" relative="1" as="geometry">
            <mxPoint x="441" y="524" as="sourcePoint" />
            <mxPoint x="491" y="474" as="targetPoint" />
            <Array as="points">
              <mxPoint x="418" y="376" />
              <mxPoint x="519" y="378" />
            </Array>
          </mxGeometry>
        </mxCell>
        <mxCell id="9xiu-EvhAOUD5Uv4MfT2-107" value="filter" style="edgeLabel;html=1;align=center;verticalAlign=middle;resizable=0;points=[];" vertex="1" connectable="0" parent="9xiu-EvhAOUD5Uv4MfT2-105">
          <mxGeometry x="-0.1074" relative="1" as="geometry">
            <mxPoint as="offset" />
          </mxGeometry>
        </mxCell>
        <mxCell id="9xiu-EvhAOUD5Uv4MfT2-106" value="" style="endArrow=none;html=1;rounded=0;entryX=0.75;entryY=1;entryDx=0;entryDy=0;exitX=0.5;exitY=0;exitDx=0;exitDy=0;" edge="1" parent="1" source="9xiu-EvhAOUD5Uv4MfT2-17" target="9xiu-EvhAOUD5Uv4MfT2-103">
          <mxGeometry width="50" height="50" relative="1" as="geometry">
            <mxPoint x="441" y="524" as="sourcePoint" />
            <mxPoint x="491" y="474" as="targetPoint" />
          </mxGeometry>
        </mxCell>
        <mxCell id="9xiu-EvhAOUD5Uv4MfT2-108" value="is a" style="edgeLabel;html=1;align=center;verticalAlign=middle;resizable=0;points=[];" vertex="1" connectable="0" parent="9xiu-EvhAOUD5Uv4MfT2-106">
          <mxGeometry x="0.0193" y="-1" relative="1" as="geometry">
            <mxPoint as="offset" />
          </mxGeometry>
        </mxCell>
        <mxCell id="9xiu-EvhAOUD5Uv4MfT2-109" value="&lt;p style=&quot;margin: 4px 0px 0px; text-align: center;&quot;&gt;&lt;b&gt;SysAdmin&lt;/b&gt;&lt;/p&gt;&lt;hr size=&quot;1&quot; style=&quot;border-style:solid;&quot;&gt;&lt;p style=&quot;margin:0px;margin-left:8px;&quot;&gt;&lt;br&gt;&lt;/p&gt;" style="verticalAlign=top;align=left;overflow=fill;html=1;whiteSpace=wrap;fillColor=#fff2cc;strokeColor=#d6b656;" vertex="1" parent="1">
          <mxGeometry x="482" y="388" width="94" height="31" as="geometry" />
        </mxCell>
        <mxCell id="9xiu-EvhAOUD5Uv4MfT2-110" value="" style="endArrow=none;html=1;rounded=0;entryX=0.75;entryY=1;entryDx=0;entryDy=0;exitX=0.75;exitY=0;exitDx=0;exitDy=0;" edge="1" parent="1" source="9xiu-EvhAOUD5Uv4MfT2-109" target="9xiu-EvhAOUD5Uv4MfT2-3">
          <mxGeometry width="50" height="50" relative="1" as="geometry">
            <mxPoint x="441" y="524" as="sourcePoint" />
            <mxPoint x="491" y="474" as="targetPoint" />
          </mxGeometry>
        </mxCell>
        <mxCell id="9xiu-EvhAOUD5Uv4MfT2-113" value="CRUD&lt;div&gt;Asign Inventory&lt;/div&gt;" style="edgeLabel;html=1;align=center;verticalAlign=middle;resizable=0;points=[];" vertex="1" connectable="0" parent="9xiu-EvhAOUD5Uv4MfT2-110">
          <mxGeometry y="-1" relative="1" as="geometry">
            <mxPoint as="offset" />
          </mxGeometry>
        </mxCell>
        <mxCell id="9xiu-EvhAOUD5Uv4MfT2-111" value="" style="endArrow=none;html=1;rounded=1;entryX=0.75;entryY=1;entryDx=0;entryDy=0;curved=0;" edge="1" parent="1" source="9xiu-EvhAOUD5Uv4MfT2-17" target="9xiu-EvhAOUD5Uv4MfT2-109">
          <mxGeometry width="50" height="50" relative="1" as="geometry">
            <mxPoint x="441" y="524" as="sourcePoint" />
            <mxPoint x="491" y="474" as="targetPoint" />
            <Array as="points">
              <mxPoint x="651" y="477" />
              <mxPoint x="553" y="473" />
            </Array>
          </mxGeometry>
        </mxCell>
        <mxCell id="9xiu-EvhAOUD5Uv4MfT2-112" value="is a" style="edgeLabel;html=1;align=center;verticalAlign=middle;resizable=0;points=[];" vertex="1" connectable="0" parent="9xiu-EvhAOUD5Uv4MfT2-111">
          <mxGeometry x="-0.0155" y="1" relative="1" as="geometry">
            <mxPoint as="offset" />
          </mxGeometry>
        </mxCell>
      </root>
    </mxGraphModel>
  </diagram>
</mxfile>
